<svg width="171" height="83" viewBox="0 0 171 83" fill="none" xmlns="http://www.w3.org/2000/svg">
<path d="M20.2338 70.5938L13.756 52.4337H2.99219V83H10.9286V64.3944L16.5012 80.5988H24.0187L29.6288 64.3944V83H37.5203V52.4337H26.8013L20.2338 70.5938Z" fill="white"/>
<path d="M50.9844 52.4337L40.9312 83H49.2415L50.9844 77.148H59.7136L61.4565 83H69.7669L59.7136 52.4337H50.9844ZM52.9367 70.2238L55.3528 61.4269L57.7613 70.2238H52.9367Z" fill="white"/>
<path d="M81.4433 52.4337H73.1778V83H91.2721V75.4037H81.4433V52.4337Z" fill="white"/>
<path d="M103.614 52.4337L93.5609 83H101.871L103.614 77.148H112.336L114.086 83H122.389L112.336 52.4337H103.614ZM105.566 70.2238L107.975 61.4496L110.384 70.2238H105.566Z" fill="white"/>
<path d="M134.073 71.3413H141.583V63.7828H134.073V60.03H143.565V52.4337H125.8V83H143.895V75.4037H134.073V71.3413Z" fill="white"/>
<path d="M166.806 66.9692C167.814 66.2872 168.631 65.354 169.177 64.2601C169.724 63.1662 169.981 61.9484 169.925 60.7246C169.925 55.4389 166.185 52.4185 160.074 52.4185H148.854V82.9848H160.321C163.761 82.9848 166.821 81.9881 168.751 79.8511C170.206 78.1577 170.966 75.9673 170.875 73.7273C170.823 70.7673 169.573 68.2831 166.806 66.9692ZM157.082 59.6826H159.326C159.607 59.6527 159.892 59.6859 160.159 59.7797C160.426 59.8736 160.669 60.0259 160.872 60.2257C161.074 60.4255 161.23 60.6678 161.329 60.9355C161.427 61.2032 161.466 61.4895 161.443 61.7742C161.481 62.0627 161.456 62.3563 161.371 62.6343C161.285 62.9123 161.14 63.1681 160.946 63.3837C160.753 63.5994 160.515 63.7699 160.249 63.8831C159.983 63.9964 159.696 64.0497 159.408 64.0395H156.999L157.082 59.6826ZM160.029 75.7057H157.082V70.7673H160.074C160.387 70.766 160.697 70.8308 160.984 70.9576C161.271 71.0844 161.528 71.2705 161.739 71.5037C161.951 71.737 162.111 72.0124 162.211 72.3121C162.311 72.6118 162.347 72.9293 162.318 73.2441C162.322 73.8814 162.08 74.4952 161.643 74.955C161.205 75.4147 160.608 75.684 159.977 75.7057H160.029Z" fill="white"/>
<path d="M102.754 30.8305C104.056 30.8305 105.372 30.77 106.674 30.6568C106.861 30.6568 107.04 30.5888 107.22 30.5511L101.916 5.92743H91.9303L98.9915 30.6417C100.233 30.7549 101.497 30.8305 102.754 30.8305Z" fill="white"/>
<path d="M20.2561 48.7943C21.2111 48.7871 22.1465 48.5201 22.9638 48.0214C23.7811 47.5228 24.4501 46.8108 24.9003 45.9606C25.3505 45.1104 25.5653 44.1534 25.522 43.1903C25.4787 42.2273 25.179 41.2938 24.6544 40.4882L24.5871 40.4052C24.4163 40.1519 24.2235 39.9144 24.0111 39.6954C23.636 39.3359 23.213 39.0309 22.7545 38.7893C21.9849 38.3767 21.1275 38.159 20.2561 38.155C18.8831 38.1528 17.5642 38.6952 16.5834 39.6652C16.5617 39.6806 16.5416 39.6983 16.5236 39.7181C16.0305 40.2128 15.6392 40.801 15.3722 41.449C15.1052 42.0969 14.9677 42.7918 14.9677 43.4935C14.9677 44.9094 15.5249 46.2673 16.5167 47.2684C17.5084 48.2696 18.8536 48.832 20.2561 48.832V48.7943Z" fill="white"/>
<path d="M127.805 40.4051H133.041C134.876 40.3917 136.685 39.9579 138.33 39.1365C139.976 38.3151 141.415 37.1275 142.54 35.6631C143.726 37.1705 145.239 38.3823 146.963 39.2046C148.687 40.0269 150.575 40.4377 152.481 40.4051H168.13V21.4069C168.194 19.3335 167.845 17.2681 167.103 15.3335C166.361 13.3988 165.242 11.6343 163.812 10.1447C162.381 8.65513 160.669 7.47078 158.777 6.66197C156.885 5.85316 154.851 5.43639 152.796 5.43639C150.74 5.43639 148.706 5.85316 146.814 6.66197C144.922 7.47078 143.21 8.65513 141.779 10.1447C140.349 11.6343 139.23 13.3988 138.488 15.3335C137.746 17.2681 137.397 19.3335 137.461 21.4069V27.6063C137.457 28.7846 136.992 29.9135 136.167 30.7467C135.341 31.5799 134.223 32.0498 133.056 32.0538H127.819C126.651 32.0149 125.543 31.5218 124.726 30.6776C123.909 29.8334 123.447 28.7032 123.436 27.5232V25.3485C123.436 24.9181 123.496 24.4802 123.496 24.0422V0H113.428V24.8275C113.424 26.6064 112.871 28.3399 111.847 29.7876C110.823 31.2354 109.378 32.3256 107.713 32.907C107.106 33.1225 106.476 33.262 105.836 33.3223C104.459 33.4507 103.06 33.5111 101.677 33.5111C101.041 33.5111 100.412 33.5111 99.7841 33.4507C96.7571 33.3322 93.7497 32.9047 90.808 32.1746V40.4806C94.4264 41.0335 98.0723 41.3839 101.729 41.5302C102.552 41.5302 105.05 41.5302 108.042 41.2508C112.069 40.8811 115.832 39.0676 118.649 36.1388C119.79 37.4694 121.202 38.5359 122.788 39.2656C124.375 39.9953 126.099 40.3711 127.842 40.3674L127.805 40.4051ZM147.44 19.9118C147.492 18.4961 148.086 17.1559 149.096 16.1729C150.107 15.1899 151.456 14.6407 152.859 14.6407C154.262 14.6407 155.611 15.1899 156.622 16.1729C157.633 17.1559 158.226 18.4961 158.278 19.9118V32.0462H154.538C152.652 32.0442 150.843 31.2873 149.508 29.9412C148.173 28.5952 147.421 26.7699 147.417 24.8653L147.44 19.9118Z" fill="white"/>
<path d="M49.6229 40.3976H85.9312V32.0462H80.8597C71.4573 32.0462 66.0641 28.5577 66.0641 22.4641C66.0641 17.5484 69.1833 14.3468 74.0005 14.3468C76.3358 14.3663 78.6461 14.8353 80.8074 15.7286L81.4955 16.0458L83.3282 7.5736L82.812 7.39993C80.0184 6.55373 77.1191 6.11635 74.2024 6.10117C60.6411 6.10117 55.8314 14.9131 55.8314 22.4641C55.8031 25.7326 56.9848 28.894 59.145 31.3289L59.8033 32.0462H49.6229C48.4495 32.0205 47.3328 31.5319 46.512 30.685C45.6913 29.8382 45.2318 28.7004 45.2321 27.5156V24.163C45.2321 24.163 45.2321 24.163 45.2321 24.1177V11.0999H35.0741V25.8695C35.0731 26.6817 34.9137 27.4856 34.6049 28.2356C34.2962 28.9855 33.8441 29.6667 33.2745 30.2402C32.7049 30.8138 32.0291 31.2685 31.2854 31.5784C30.5418 31.8882 29.745 32.0472 28.9405 32.0462H26.4496C14.7806 32.0462 10.2402 28.2707 10.2402 18.4545C10.2491 16.8742 10.3943 15.2976 10.6741 13.7427H0.620847C0.2123 15.6407 0.0041887 17.577 0 19.5192C0 29.8413 4.52545 36.2445 13.711 38.9327C14.5204 37.7401 15.6338 36.7904 16.9336 36.1837C18.2335 35.5771 19.6715 35.336 21.0958 35.4861C22.5201 35.6361 23.8778 36.1717 25.0255 37.0362C26.1733 37.9007 27.0684 39.062 27.6165 40.3976H29.1125C33.2499 40.3848 37.2232 38.762 40.2055 35.867C41.3433 37.2809 42.7789 38.4211 44.4079 39.2048C46.0369 39.9884 47.8184 40.3959 49.6229 40.3976Z" fill="white"/>
</svg>
