<svg width="70" height="34" viewBox="0 0 70 34" fill="none" xmlns="http://www.w3.org/2000/svg">
<g id="Layer 2">
<g id="Layer 1">
<path id="Vector" d="M8.28847 28.9179L5.63493 21.4789H1.22565V34H4.47669V26.3784L6.75947 33.0164H9.83892L12.137 26.3784V34H15.3697V21.4789H10.9788L8.28847 28.9179Z" fill="#88BE46"/>
<path id="Vector_2" d="M20.8851 21.4789L16.7669 34H20.1712L20.8851 31.6028H24.4609L25.1749 34H28.5791L24.4609 21.4789H20.8851ZM21.6848 28.7664L22.6746 25.1628L23.6612 28.7664H21.6848Z" fill="#88BE46"/>
<path id="Vector_3" d="M33.3623 21.4789H29.9764V34H37.3886V30.8883H33.3623V21.4789Z" fill="#88BE46"/>
<path id="Vector_4" d="M42.4444 21.4789L38.3262 34H41.7304L42.4444 31.6028H46.0171L46.7341 34H50.1353L46.0171 21.4789H42.4444ZM43.2441 28.7664L44.2308 25.1721L45.2174 28.7664H43.2441Z" fill="#88BE46"/>
<path id="Vector_5" d="M54.9215 29.2242H57.9979V26.1279H54.9215V24.5906H58.8098V21.4789H51.5325V34H58.9447V30.8883H54.9215V29.2242Z" fill="#88BE46"/>
<path id="Vector_6" d="M68.3301 27.4332C68.7431 27.1538 69.0777 26.7716 69.3015 26.3235C69.5254 25.8754 69.6309 25.3765 69.6079 24.8752C69.6079 22.71 68.0758 21.4727 65.5724 21.4727H60.9762V33.9938H65.6735C67.083 33.9938 68.3362 33.5855 69.1268 32.7102C69.7229 32.0165 70.0342 31.1192 69.997 30.2016C69.9755 28.9891 69.4638 27.9714 68.3301 27.4332ZM64.3467 24.4483H65.266C65.3812 24.4361 65.4978 24.4497 65.6072 24.4881C65.7167 24.5266 65.8164 24.589 65.8992 24.6708C65.982 24.7527 66.046 24.8519 66.0864 24.9616C66.1268 25.0712 66.1428 25.1885 66.1331 25.3051C66.1488 25.4234 66.1387 25.5436 66.1036 25.6575C66.0685 25.7714 66.0092 25.8761 65.9299 25.9645C65.8505 26.0528 65.753 26.1227 65.6442 26.169C65.5353 26.2154 65.4178 26.2373 65.2997 26.2331H64.313L64.3467 24.4483ZM65.554 31.012H64.3467V28.9891H65.5724C65.7007 28.9885 65.8277 29.0151 65.9452 29.067C66.0627 29.119 66.1681 29.1952 66.2547 29.2908C66.3413 29.3863 66.4071 29.4991 66.4479 29.6219C66.4887 29.7447 66.5036 29.8747 66.4916 30.0036C66.4934 30.2647 66.3941 30.5162 66.215 30.7045C66.0359 30.8928 65.791 31.0032 65.5326 31.012H65.554Z" fill="#88BE46"/>
<path id="Vector_7" d="M42.0919 12.6293C42.6251 12.6293 43.1644 12.6046 43.6975 12.5582C43.7741 12.5582 43.8477 12.5304 43.9212 12.5149L41.7488 2.4281H37.6581L40.5507 12.552C41.0593 12.5984 41.5772 12.6293 42.0919 12.6293Z" fill="#88BE46"/>
<path id="Vector_8" d="M8.29769 19.988C8.68888 19.985 9.07206 19.8757 9.40686 19.6714C9.74166 19.4671 10.0157 19.1755 10.2001 18.8272C10.3845 18.4789 10.4725 18.0869 10.4548 17.6924C10.4371 17.2979 10.3143 16.9155 10.0994 16.5855L10.0718 16.5515C10.0018 16.4477 9.92288 16.3504 9.83588 16.2607C9.68221 16.1134 9.50895 15.9885 9.32111 15.8895C9.00586 15.7205 8.65464 15.6313 8.29769 15.6297C7.73524 15.6288 7.19495 15.851 6.7932 16.2483C6.78429 16.2547 6.77607 16.2619 6.76869 16.27C6.56671 16.4726 6.40643 16.7136 6.29705 16.979C6.18767 17.2445 6.13135 17.5291 6.13135 17.8166C6.13135 18.3966 6.35959 18.9528 6.76585 19.3629C7.17212 19.773 7.72314 20.0034 8.29769 20.0034V19.988Z" fill="#88BE46"/>
<path id="Vector_9" d="M52.3537 16.5515H54.4986C55.2506 16.546 55.9915 16.3683 56.6656 16.0318C57.3396 15.6954 57.9293 15.2089 58.3901 14.609C58.8757 15.2265 59.4956 15.7229 60.2017 16.0597C60.9079 16.3966 61.6814 16.5648 62.4623 16.5515H68.8725V8.7691C68.8988 7.91973 68.7557 7.07368 68.4519 6.28118C68.148 5.48868 67.6896 4.76588 67.1037 4.15568C66.5178 3.54548 65.8164 3.06032 65.0412 2.729C64.266 2.39768 63.4328 2.22695 62.591 2.22695C61.7492 2.22695 60.916 2.39768 60.1408 2.729C59.3656 3.06032 58.6642 3.54548 58.0783 4.15568C57.4924 4.76588 57.034 5.48868 56.7301 6.28118C56.4263 7.07368 56.2832 7.91973 56.3095 8.7691V11.3086C56.3079 11.7913 56.1173 12.2537 55.7791 12.595C55.441 12.9364 54.9829 13.1288 54.5048 13.1305H52.3599C51.8813 13.1145 51.4273 12.9126 51.0927 12.5667C50.7581 12.2209 50.5688 11.7579 50.5643 11.2746V10.3837C50.5643 10.2074 50.5888 10.028 50.5888 9.84862V0H46.4645V10.1703C46.4628 10.899 46.2365 11.6091 45.817 12.2022C45.3976 12.7952 44.8057 13.2418 44.1235 13.48C43.875 13.5683 43.6167 13.6254 43.3544 13.6501C42.7906 13.7027 42.2176 13.7274 41.6507 13.7274C41.3903 13.7274 41.1329 13.7274 40.8755 13.7027C39.6355 13.6542 38.4036 13.479 37.1985 13.1799V16.5824C38.6808 16.8089 40.1743 16.9524 41.6722 17.0124C42.0092 17.0124 43.0327 17.0124 44.2583 16.8979C45.908 16.7465 47.4493 16.0036 48.6032 14.8039C49.0707 15.3489 49.6491 15.7858 50.2989 16.0847C50.9488 16.3836 51.6549 16.5376 52.3691 16.536L52.3537 16.5515ZM60.3971 8.15666C60.4184 7.57672 60.6617 7.02772 61.0756 6.62504C61.4896 6.22237 62.0421 5.99739 62.617 5.99739C63.1919 5.99739 63.7444 6.22237 64.1584 6.62504C64.5724 7.02772 64.8157 7.57672 64.837 8.15666V13.1274H63.3049C62.5321 13.1265 61.791 12.8165 61.2442 12.2651C60.6975 11.7137 60.3895 10.966 60.3879 10.1858L60.3971 8.15666Z" fill="#88BE46"/>
<path id="Vector_10" d="M20.3274 16.5484H35.2007V13.1274H33.1233C29.2716 13.1274 27.0624 11.6983 27.0624 9.20214C27.0624 7.1885 28.3402 5.877 30.3135 5.877C31.2701 5.88497 32.2165 6.07709 33.1018 6.44305L33.3837 6.57296L34.1344 3.10243L33.923 3.03129C32.7786 2.68465 31.5909 2.50549 30.3962 2.49927C24.8409 2.49927 22.8707 6.10898 22.8707 9.20214C22.8591 10.5411 23.3432 11.8361 24.2281 12.8335L24.4977 13.1274H20.3274C19.8468 13.1168 19.3893 12.9167 19.0531 12.5698C18.7169 12.2229 18.5287 11.7568 18.5288 11.2715V9.8981C18.5288 9.8981 18.5288 9.8981 18.5288 9.87954V4.54694H14.3677V10.5972C14.3673 10.9298 14.302 11.2592 14.1755 11.5664C14.049 11.8736 13.8638 12.1526 13.6305 12.3876C13.3972 12.6225 13.1203 12.8088 12.8157 12.9357C12.5111 13.0626 12.1847 13.1278 11.8551 13.1274H10.8348C6.05472 13.1274 4.1948 11.5808 4.1948 7.55968C4.19844 6.91231 4.2579 6.2665 4.37252 5.62954H0.254323C0.0869664 6.40701 0.00171585 7.2002 0 7.99581C0 12.2242 1.8538 14.8472 5.61655 15.9483C5.94811 15.4598 6.4042 15.0708 6.93667 14.8222C7.46913 14.5737 8.05819 14.475 8.64164 14.5365C9.22508 14.5979 9.78126 14.8173 10.2514 15.1714C10.7216 15.5256 11.0883 16.0013 11.3128 16.5484H11.9256C13.6205 16.5432 15.2481 15.8784 16.4697 14.6925C16.9358 15.2717 17.5239 15.7387 18.1912 16.0598C18.8585 16.3808 19.5882 16.5477 20.3274 16.5484Z" fill="#88BE46"/>
</g>
</g>
</svg>
